# xmcd CD database file
#
# Track frame offsets:
#	150
#	19893
#	39549
#	59292
#
# Disc length: 1049 seconds
#
# Revision: 0
# Processed by: cddbd v1.5.1PL0 Copyright (c) Steve Scherf et al.
# Submitted via: CDex 1.51
#
DISCID=2d041704
DTITLE=美郷あき - Silent wing
DYEAR=2005
DGENRE=Pop
TTITLE0=Silent wing
TTITLE1=Goal to NEW WORLD
TTITLE2=Silent wing(off vocal)
TTITLE3=Goal to NEW WORLD(off vocal)
EXTD=YEAR: 2005
EXTT0=
EXTT1=
EXTT2=
EXTT3=
PLAYORDER=
